<svg id="eJbQDdNKsMt1" xmlns="http://www.w3.org/2000/svg" xmlns:xlink="http://www.w3.org/1999/xlink" viewBox="0 0 440 224" shape-rendering="geometricPrecision" text-rendering="geometricPrecision">
<style><![CDATA[
#eJbQDdNKsMt1{pointer-events: all}#eJbQDdNKsMt1:hover #eJbQDdNKsMt6_to {animation: eJbQDdNKsMt6_to__to 4000ms linear infinite normal forwards}@keyframes eJbQDdNKsMt6_to__to { 0% {transform: translate(224.428519px,170.8325px);animation-timing-function: cubic-bezier(0.42,0,0.175,0.995)} 20% {transform: translate(224.428519px,167.020602px);animation-timing-function: cubic-bezier(0.76,0.005,0.58,1)} 47.5% {transform: translate(224.428519px,170.8325px);animation-timing-function: cubic-bezier(0.795,0,0.495,0.995)} 72.5% {transform: translate(224.42852px,167.020602px);animation-timing-function: cubic-bezier(0.76,0.005,0.58,1)} 100% {transform: translate(224.428519px,170.8325px)}} #eJbQDdNKsMt1:hover #eJbQDdNKsMt12_to {animation: eJbQDdNKsMt12_to__to 4000ms linear infinite normal forwards}@keyframes eJbQDdNKsMt12_to__to { 0% {transform: translate(220.5415px,121.674px);animation-timing-function: cubic-bezier(0.42,0,0.175,0.995)} 20% {transform: translate(220.5415px,109.1565px);animation-timing-function: cubic-bezier(0.76,0.005,0.58,1)} 47.5% {transform: translate(220.5415px,121.674px);animation-timing-function: cubic-bezier(0.795,0,0.495,0.995)} 72.5% {transform: translate(220.5415px,109.1565px);animation-timing-function: cubic-bezier(0.76,0.005,0.58,1)} 100% {transform: translate(220.5415px,121.674px)}}
]]></style>
<defs><linearGradient id="eJbQDdNKsMt6-fill" x1="0.490403" y1="-0.416406" x2="0.490403" y2="0.799078" spreadMethod="pad" gradientUnits="objectBoundingBox" gradientTransform="translate(0 0)"><stop id="eJbQDdNKsMt6-fill-0" offset="0%" stop-color="#001d2f"/><stop id="eJbQDdNKsMt6-fill-1" offset="100%" stop-color="#365995"/></linearGradient><linearGradient id="eJbQDdNKsMt10-fill" x1="220.541" y1="85.6303" x2="220.541" y2="172.3998" spreadMethod="pad" gradientUnits="userSpaceOnUse" gradientTransform="translate(0 0)"><stop id="eJbQDdNKsMt10-fill-0" offset="0%" stop-color="#f0eacf"/><stop id="eJbQDdNKsMt10-fill-1" offset="100%" stop-color="#365995"/></linearGradient></defs><path d="M305.594105,21.718102c-38.807,0-131.229,0-170.036,0-50.258,0-91,40.355-91,90.135s40.742,90.135,91,90.135c38.807,0,131.229,0,170.036,0c50.258,0,91-40.355,91-90.135s-40.742-90.135-91-90.135Z" fill="#365995"/><path d="M241.51155,54.570035c0,0,0,12.275514,0,12.275514s-4.903723,1.918451-8.937048,0C227.741515,64.53988,225.145265,67.901,222.9,67.901c-2.453831-2.827204-3.336954-9.167189,0-12.48.657099,0,5.336202-2.88,9.674502-.850965c4.223589,1.850965,8.937048,0,8.937048,0Z" fill="#f0eacf"/><path d="M220.648,52.541v0c1.591,0,2.88,1.289,2.88,2.88v35.931c0,1.591-1.289,2.88-2.88,2.88v0c-1.591,0-2.88-1.289-2.88-2.88v-35.931c0-1.591,1.289-2.88,2.88-2.88Z" fill="#001d2f"/><g transform="translate(0 1)" clip-path="url(#eJbQDdNKsMt7)"><g id="eJbQDdNKsMt6_to" transform="translate(224.428519,170.8325)"><rect width="386.665019" height="106.335" rx="0" ry="0" transform="translate(-193.332509,-53.1675)" fill="url(#eJbQDdNKsMt6-fill)" stroke-width="0"/></g><clipPath id="eJbQDdNKsMt7"><path d="M305.594105,21.718102c-38.807,0-131.229,0-170.036,0-50.258,0-91,40.355-91,90.135s40.742,90.135,91,90.135c38.807,0,131.229,0,170.036,0c50.258,0,91-40.355,91-90.135s-40.742-90.135-91-90.135Z" fill="#365995"/></clipPath></g><g mask="url(#eJbQDdNKsMt11)"><path d="M289.825,155.188c0-38.264-31.019-69.284-69.284-69.284-38.264,0-69.283,31.019-69.283,69.284c0,.757.033,1.505.057,2.256h138.453c.024-.751.057-1.499.057-2.256Z" fill="url(#eJbQDdNKsMt10-fill)"/><mask id="eJbQDdNKsMt11" mask-type="luminance" x="-150%" y="-150%" height="400%" width="400%"><g id="eJbQDdNKsMt12_to" transform="translate(220.5415,121.674)"><rect width="138.567" height="71.54" rx="0" ry="0" transform="translate(-69.2835,-35.77)" fill="#fff" stroke-width="0"/></g></mask></g></svg>
