<svg height="35" viewBox="0 0 140 35" width="140" xmlns="http://www.w3.org/2000/svg"><g fill="none"><path d="m37.1796448 13.1943616h14.1107745v2.5894292h-5.5559721v14.5970478h-3.0453237v-14.5970478h-5.5327254zm13.5063592 4.7434676h2.6036355v2.4061068h.0464934c.092987-.3437295.2557142-.6645437.4881817-.985358.2324675-.3208142.5114284-.6187132.8601296-.8707815.3254544-.2749836.6974023-.4812213 1.1158438-.6416285.3951946-.1604071.8136361-.2520683 1.2320775-.2520683.3254544 0 .5579219.0229153.6741556.0229153.1162337.0229153.2557142.0458306.3719479.0458306v2.6352598c-.1859739-.0458306-.3951947-.0687459-.6044154-.0916612s-.3951946-.0458306-.6044153-.0458306c-.464935 0-.9066231.0916612-1.3250645.2749836-.4184415.1833225-.7671426.4583061-1.0925971.8020356-.3022077.3666449-.5579219.8020356-.7438958 1.3290876-.185974.5270519-.278961 1.1457651-.278961 1.8332242v5.9121481h-2.7896094zm20.178175 12.4430094h-2.7431159v-1.741563h-.0464935c-.3487012.6416285-.8601296 1.1228498-1.5342852 1.51241-.6741557.3895601-1.371558.5728825-2.0689604.5728825-1.6505189 0-2.8593497-.3895601-3.6032455-1.214511-.7438959-.8020356-1.1158438-2.0394619-1.1158438-3.6664484v-7.9057795h2.7896094v7.6307958c0 1.0999346.2092208 1.8790549.6509089 2.3144456.4184414.4583061 1.0228568.6874591 1.7899994.6874591.5811687 0 1.0693503-.0916612 1.464545-.2749836.3951947-.1833225.7206491-.4124755.9531165-.7103744.2557142-.297899.4184415-.6645438.5346752-1.0770193.1162337-.4124754.1627272-.8707815.1627272-1.3520028v-7.2183204h2.7896095v12.4430094zm4.7423361-3.9872627c.092987.8020356.3951947 1.3520029.9298698 1.6957324.5346752.3208143 1.185584.4812214 1.9294799.4812214.2557142 0 .5579219-.0229153.8833763-.0687459s.6509089-.1145765.9298698-.2291531c.3022077-.1145765.5346752-.2749836.7206491-.5041366.185974-.229153.278961-.5041367.2557142-.8478662-.0232467-.3437295-.1394804-.6416285-.3951946-.8707815s-.5579219-.3895602-.9298699-.5499673c-.3719479-.1374918-.813636-.2520683-1.3018177-.3437295s-.9763633-.2062377-1.4877917-.3208142c-.5114284-.1145766-1.0228568-.2520684-1.5110385-.4124755-.4881816-.1604071-.906623-.3666448-1.3018177-.6645438-.3719479-.2749836-.6974024-.6187131-.9066231-1.0541039-.2324674-.4353907-.3487012-.9395274-.3487012-1.5811559 0-.6874591.1627273-1.2374263.5114284-1.6957324.3254545-.458306.7671426-.8249509 1.278571-1.0999345s1.0925971-.4812214 1.7202592-.5957979 1.2320775-.1604071 1.7899994-.1604071c.6509089 0 1.278571.0687459 1.8597396.2062377.5811687.1374918 1.1390906.3437296 1.6040255.6645438.4881816.2978989.8833763.7103744 1.185584 1.1915957.3254544.4812214.5114284 1.0770193.6044154 1.7644784h-2.9058432c-.1394805-.6645438-.4416882-1.0999346-.9066231-1.3290876-.4881816-.229153-1.0228568-.3437295-1.6505189-.3437295-.185974 0-.4416882.0229153-.6974024.0458306-.2789609.0458306-.5114284.0916612-.7671426.1833224-.2324674.0916612-.4416881.229153-.6044154.3895601-.1627272.1604071-.2557142.3895602-.2557142.6645438 0 .3437295.1162338.5957979.3487012.8020356.2324675.2062377.5346752.3666448.9298698.527052.371948.1374918.8136361.2520683 1.3018178.3437295.4881816.0916612.99961.2062377 1.5110384.3208142.5114284.1145766.9996101.2520684 1.4877918.4124755.4881816.1604071.9298698.3666448 1.3018177.6645438.3719479.2749836.6974024.6187131.9298698 1.0311886.2324675.4124754.3487012.9395274.3487012 1.5353253 0 .7332896-.1627272 1.3520028-.5114284 1.8790548-.3487012.5041366-.7903893.9395274-1.3250645 1.2603416-.5346751.3208143-1.1623373.5499673-1.8132461.7103744-.6741557.1374918-1.3250645.229153-1.9759734.229153-.7903893 0-1.5342852-.0916612-2.2084408-.2749836s-1.278571-.4583061-1.7667527-.8020356c-.4881816-.3666448-.8833763-.8020356-1.1623372-1.3520028-.278961-.527052-.4416882-1.1686805-.464935-1.9248855h2.8128562v.0229153zm9.1824644-8.4557467h2.1154539v-3.7581096h2.7896094v3.7351943h2.5106485v2.039462h-2.5106485v6.6454378c0 .2978989.0232468.5270519.0464935.7562049.0232468.2062378.092987.3895602.1627272.527052.092987.1374918.2324675.2520683.3951947.3208142.185974.0687459.4184414.1145766.7438959.1145766.1859739 0 .3951946 0 .5811686-.0229153.185974-.0229154.3951947-.0458307.5811686-.0916613v2.1311232c-.3022076.0458306-.6044153.0687459-.906623.0916612-.3022077.0458306-.5811687.0458306-.9066231.0458306-.7438959 0-1.3250645-.0687459-1.7667527-.2062377-.4416881-.1374918-.7903893-.3437296-1.0461035-.5957979-.2557142-.2749836-.4184414-.5957979-.5114284-.985358s-.1394805-.8707815-.1627272-1.3749182v-7.3328968h-2.1154539v-2.0852926zm9.3684385 0h2.6268822v1.6957324h.0464935c.3951947-.7332896.9298698-1.2374263 1.6272722-1.5582405.6974023-.3208143 1.4412982-.4812214 2.2781811-.4812214.99961 0 1.85974.1604071 2.603635.527052.743896.3437295 1.348312.8020356 1.836493 1.4207487.488182.5957979.86013 1.3061723 1.092597 2.1082079.232468.8020356.371948 1.6728171.371948 2.5665139 0 .8478662-.116233 1.6499018-.325454 2.4290221-.232468.7791203-.557922 1.4894946-.99961 2.0852925s-.99961 1.0770192-1.697013 1.4436641c-.697402.3666448-1.487791.5499672-2.417661.5499672-.395195 0-.813636-.0458306-1.2088309-.1145765-.3951947-.0687459-.7903894-.1833224-1.1623373-.3437295s-.7206491-.3666449-1.0228568-.6187132c-.3254544-.2520683-.5811686-.5499673-.7903893-.8707815h-.0464935v6.210047h-2.7896095v-17.0489852zm9.740386 6.2329624c0-.5499673-.06974-1.0999346-.232467-1.6269865-.139481-.527052-.371948-.985358-.674156-1.3978335-.302207-.4124754-.674155-.7332897-1.092597-.985358-.441688-.2520683-.953116-.3666448-1.511038-.3666448-1.1623375 0-2.0457139.3895601-2.6501292 1.1915957-.5811687.8020356-.8833764 1.8790548-.8833764 3.2081424 0 .6416285.0697403 1.214511.2324675 1.741563.1627272.5270519.3719479.985358.6974024 1.3749181.3022076.3895602.6741556.6874591 1.1158437.9166121.4416882.2291531.9298699.3437296 1.511038.3437296.650909 0 1.162338-.1374918 1.604026-.3895602.441688-.2520683.790389-.5957978 1.092597-.985358.278961-.4124754.488182-.8707815.604415-1.3978334.116234-.5499673.185974-1.0770193.185974-1.6269865zm4.905064-10.97643h2.789609v2.5894292h-2.789609zm0 4.7434676h2.789609v12.4430094h-2.789609zm5.277011-4.7434676h2.789609v17.186477h-2.789609zm11.297918 17.5302065c-.99961 0-1.906233-.1604071-2.696622-.5041366-.79039-.3437296-1.441299-.7791203-1.99922-1.3520029-.534676-.5728825-.953117-1.2832569-1.232078-2.0852925s-.441688-1.6957324-.441688-2.6352598.13948-1.8103089.441688-2.6123445c.278961-.8020356.697402-1.4894947 1.232078-2.0852926.534675-.5728825 1.20883-1.0311886 1.99922-1.3520028.790389-.3208143 1.697012-.5041367 2.696622-.5041367s1.906233.1604071 2.696623.5041367c.790389.3208142 1.441298.7791203 1.99922 1.3520028.534675.5728826.953116 1.283257 1.232077 2.0852926s.441688 1.6728171.441688 2.6123445c0 .9624427-.13948 1.8332242-.441688 2.6352598-.302207.8020356-.697402 1.4894946-1.232077 2.0852925-.534675.5728826-1.208831 1.0311886-1.99922 1.3520029-.79039.3208142-1.673766.5041366-2.696623.5041366zm0-2.1769537c.604415 0 1.162337-.1374918 1.604026-.3895602.464934-.2520683.813636-.5957978 1.115843-1.0082733.302208-.4124754.511429-.8936968.650909-1.3978334.139481-.527052.209221-1.054104.209221-1.6040712 0-.527052-.06974-1.054104-.209221-1.5811559-.13948-.527052-.348701-.985358-.650909-1.3978335-.302207-.4124754-.674155-.7332897-1.115843-.985358-.464935-.2520683-.999611-.3895601-1.604026-.3895601s-1.162337.1374918-1.604025.3895601c-.464935.2520683-.813636.5957979-1.115844.985358-.302208.4124755-.511429.8707815-.650909 1.3978335-.13948.5270519-.209221 1.0541039-.209221 1.5811559 0 .5499672.069741 1.0770192.209221 1.6040712.13948.5270519.348701.985358.650909 1.3978334.302208.4124755.674156.756205 1.115844 1.0082733.464935.2749837.99961.3895602 1.604025.3895602zm7.206491-10.6097852h2.115454v-3.7581096h2.789609v3.7351943h2.510649v2.039462h-2.510649v6.6454378c0 .2978989.023247.5270519.046494.7562049.023247.2062378.092987.3895602.162727.527052.092987.1374918.232468.2520683.395195.3208142.185974.0687459.418441.1145766.743896.1145766.185974 0 .395194 0 .581168-.0229153.185974-.0229154.395195-.0458307.581169-.0916613v2.1311232c-.302208.0458306-.604415.0687459-.906623.0916612-.302208.0458306-.581169.0458306-.906623.0458306-.743896 0-1.325065-.0687459-1.766753-.2062377s-.790389-.3437296-1.046103-.5957979c-.255715-.2749836-.418442-.5957979-.511429-.985358s-.13948-.8707815-.162727-1.3749182v-7.3328968h-2.115454v-2.0852926z" fill="#000"/><path d="m33.1753555 12.7602336h-12.6745095l-3.901625-12.11304181-3.9247115 12.11304181-12.6745095-.0232051 10.250423 7.4952347-3.92471152 12.1130418 10.25042302-7.4952347 10.2504229 7.4952347-3.9016249-12.1130418z" fill="#00b67a"/><path d="m23.8862559 23.1995764-.8889294-2.7410639-6.4096488 4.6226416z" fill="#005128"/></g></svg>
