<svg height="35" viewBox="0 0 188 35" width="188" xmlns="http://www.w3.org/2000/svg"><g fill="none" fill-rule="evenodd"><path d="m0 0h35v35h-35z" fill="#00ba75"/><path d="m18 23.3671875 5.1504237-1.3203125 2.2217514 6.703125zm11.9166667-8.734375h-9.0889831l-2.8276836-8.6328125-2.8276836 8.6328125h-9.08898307l7.37217517 5.3828125-2.8276836 8.734375 7.3721751-5.3828125 4.5444915-3.3515625z" fill="#fff"/><path d="m38 0h35v35h-35z" fill="#00ba75"/><path d="m56 23.3671875 5.1504237-1.3203125 2.2217514 6.703125zm11.9166667-8.734375h-9.0889831l-2.8276836-8.6328125-2.8276836 8.6328125h-9.0889831l7.3721752 5.3828125-2.8276836 8.734375 7.3721751-5.3828125 4.5444915-3.3515625z" fill="#fff"/><path d="m76 0h35v35h-35z" fill="#00ba75"/><path d="m94 23.3671875 5.1504237-1.3203125 2.2217513 6.703125zm11.916667-8.734375h-9.0889834l-2.8276836-8.6328125-2.8276836 8.6328125h-9.0889831l7.3721752 5.3828125-2.8276836 8.734375 7.3721751-5.3828125 4.5444915-3.3515625z" fill="#fff"/><path d="m114 0h35v35h-35z" fill="#00ba75"/><path d="m132 23.3671875 5.150424-1.3203125 2.221751 6.703125zm11.916667-8.734375h-9.088983l-2.827684-8.6328125-2.827684 8.6328125h-9.088983l7.372175 5.3828125-2.827683 8.734375 7.372175-5.3828125 4.544492-3.3515625z" fill="#fff"/><path d="m152 0h35v35h-35z" fill="#00ba75"/><path d="m170 23.3671875 5.150424-1.3203125 2.221751 6.703125zm11.916667-8.734375h-9.088983l-2.827684-8.6328125-2.827684 8.6328125h-9.088983l7.372175 5.3828125-2.827683 8.734375 7.372175-5.3828125 4.544492-3.3515625z" fill="#fff"/></g></svg>
