<?xml version="1.0" standalone="no"?>
<!DOCTYPE svg PUBLIC "-//W3C//DTD SVG 20010904//EN"
 "http://www.w3.org/TR/2001/REC-SVG-20010904/DTD/svg10.dtd">
<svg version="1.0" xmlns="http://www.w3.org/2000/svg"
 width="700.000000pt" height="700.000000pt" viewBox="0 0 700.000000 700.000000"
 preserveAspectRatio="xMidYMid meet">
<metadata>
Created by potrace 1.11, written by Peter Selinger 2001-2013
</metadata>
<g transform="translate(0.000000,700.000000) scale(0.100000,-0.100000)"
fill="#000000" stroke="none">
<path d="M3517 5814 c-1 -1 -42 -4 -90 -8 -49 -4 -131 -18 -183 -32 -88 -22
-238 -82 -274 -109 -8 -6 -26 -17 -40 -24 -51 -25 -156 -111 -231 -188 -129
-132 -161 -187 -362 -624 -19 -41 -50 -108 -69 -149 -20 -41 -38 -84 -42 -96
l-6 -20 1652 0 c1646 0 1653 -1 1698 -21 56 -25 84 -52 111 -104 58 -115 -2
-261 -127 -304 -28 -9 -513 -12 -2222 -12 l-2187 0 -25 -49 c-14 -28 -43 -88
-64 -134 -21 -47 -64 -137 -94 -200 -30 -63 -69 -146 -87 -185 -18 -38 -94
-199 -168 -357 -74 -158 -138 -296 -141 -306 -6 -19 4 -20 411 -20 230 0 430
-1 446 -1 l27 -1 -19 -37 c-62 -122 -182 -443 -196 -526 -4 -18 -10 -50 -15
-72 -15 -65 -4 -280 18 -362 69 -254 236 -446 493 -567 96 -45 241 -89 339
-102 30 -4 64 -9 75 -10 38 -5 2160 -4 2190 1 123 23 250 73 337 134 56 38
152 134 187 185 78 114 113 219 114 346 1 221 -112 399 -318 501 -145 71 -102
69 -1340 71 -1062 3 -1112 4 -1162 22 -65 23 -128 76 -150 125 -24 56 -22 155
6 229 23 60 25 62 60 63 20 0 657 1 1416 3 759 2 1391 5 1405 9 14 3 43 8 65
11 22 3 51 8 65 11 14 4 39 8 55 11 79 14 253 70 357 116 426 188 756 522 914
924 30 78 67 209 78 279 3 17 8 50 12 75 3 25 7 99 8 165 4 347 -127 669 -374
914 -186 186 -416 313 -683 376 -117 27 -150 32 -267 41 -68 5 -1597 12 -1603
8z"/>
</g>
</svg>
