<?xml version="1.0" encoding="UTF-8"?>
<svg width="135px" height="80px" viewBox="0 0 135 80" version="1.1" xmlns="http://www.w3.org/2000/svg" xmlns:xlink="http://www.w3.org/1999/xlink">
    <title>Default avatar/testimonial-avatar-default-2</title>
    <defs>
        <linearGradient x1="107.154831%" y1="36.2432365%" x2="-4.27187379%" y2="63.4970264%" id="linearGradient-1">
            <stop stop-color="#F0EACF" offset="0%"></stop>
            <stop stop-color="#365996" offset="100%"></stop>
        </linearGradient>
        <path d="M104,0 C121.120827,-3.14504494e-15 135,13.8791728 135,31 C135,48.1208272 121.120827,62 104,62 L49.612,62 L27.1917873,80 L27.1917873,61.9082112 L28.6073508,61.9090356 C12.6045598,60.6875288 1.99810197e-15,47.3157407 0,31 C-2.09669663e-15,13.8791728 13.8791728,3.14504494e-15 31,0 L104,0 Z" id="path-2"></path>
    </defs>
    <g id="Default-avatar/testimonial-avatar-default-2" stroke="none" stroke-width="1" fill="none" fill-rule="evenodd">
        <g>
            <mask id="mask-3" fill="white">
                <use xlink:href="#path-2"></use>
            </mask>
            <use id="Mask" fill="url(#linearGradient-1)" xlink:href="#path-2"></use>
            <path d="M52.6153846,48 C62.2007113,48 69.9900589,60.4502102 70.1512969,70.0226076 L70.1538462,70.3239193 L70.1538462,73.8751263 C70.1538462,75.8672043 68.5512171,89.4198124 66.5553769,89.8363443 L66.4615385,89.8461538 L6.15384615,89.8461538 C4.14601331,89.8461538 2.51249454,76.324193 2.46270765,73.9768779 L2.46153846,73.8751263 L2.46153846,70.3239193 C2.46153846,60.8138059 10.1510389,48.264532 19.6979093,48.0041207 L20,48 L52.6153846,48 Z M36.3076923,11.0769231 C44.8043808,11.0769231 51.6923077,17.96485 51.6923077,26.4615385 C51.6923077,34.9582269 44.8043808,41.8461538 36.3076923,41.8461538 C27.8110038,41.8461538 20.9230769,34.9582269 20.9230769,26.4615385 C20.9230769,17.96485 27.8110038,11.0769231 36.3076923,11.0769231 Z M75.6923077,25.8461538 C78.0713805,25.8461538 80,27.7747734 80,30.1538462 C80,32.5329189 78.0713805,34.4615385 75.6923077,34.4615385 C73.3132349,34.4615385 71.3846154,32.5329189 71.3846154,30.1538462 C71.3846154,27.7747734 73.3132349,25.8461538 75.6923077,25.8461538 Z M91.6923077,25.8461538 C94.0713805,25.8461538 96,27.7747734 96,30.1538462 C96,32.5329189 94.0713805,34.4615385 91.6923077,34.4615385 C89.3132349,34.4615385 87.3846154,32.5329189 87.3846154,30.1538462 C87.3846154,27.7747734 89.3132349,25.8461538 91.6923077,25.8461538 Z M107.692308,25.8461538 C110.07138,25.8461538 112,27.7747734 112,30.1538462 C112,32.5329189 110.07138,34.4615385 107.692308,34.4615385 C105.313235,34.4615385 103.384615,32.5329189 103.384615,30.1538462 C103.384615,27.7747734 105.313235,25.8461538 107.692308,25.8461538 Z" id="Combined-Shape" fill="#F0EACF" mask="url(#mask-3)"></path>
        </g>
    </g>
</svg>